# xmcd CD database file generated by OrangeCD 5.2
#
# Track frame offsets:
#	150
#	13402
#	26022
#	38862
#	58562
#	76929
#	93782
#	103080
#	114765
#	130100
#	159975
#	170805
#	187605
#	198432
#	212260
#	220517
#	233935
#	248127
#	259820
#	272980
#
# Disc length: 3764 seconds
#
# Revision: 0
# Processed by: cddbd v1.5.1PL0 Copyright (c) Steve Scherf et al.
# Submitted via: OrangeCD 5.2
#
DISCID=060eb214
DTITLE=Ivor And The Engines - Full Skiffle And Steamy Hillbilly
DYEAR=2001
DGENRE=Country
TTITLE0=Cripple Creek
TTITLE1=Folsom Prison Blues
TTITLE2=Ogallala Shorty
TTITLE3=New River Train
TTITLE4=Ellie May
TTITLE5=Foggy Mountain Breakdown
TTITLE6=65 Special
TTITLE7=Ugly And Slouchy
TTITLE8=Ain't Gonna Rain No More
TTITLE9=Ain't Gonna Rain No More
TTITLE10=Ballad Of Jed Clampet
TTITLE11=Dark Town Strutters' Ball
TTITLE12=That's Alright Mama
TTITLE13=Bloodshot Eyes
TTITLE14=Don't You Rock Me Daddy-O
TTITLE15=Devil In Disguise
TTITLE16=I Won't Go Hunting With You Jake
TTITLE17=Barefoot Nellie
TTITLE18=Yonder Comes A Sucker
TTITLE19=Last Train To Clarkesville
EXTD=
EXTT0=
EXTT1=
EXTT2=
EXTT3=
EXTT4=
EXTT5=
EXTT6=
EXTT7=
EXTT8=
EXTT9=
EXTT10=
EXTT11=
EXTT12=
EXTT13=
EXTT14=
EXTT15=
EXTT16=
EXTT17=
EXTT18=
EXTT19=
PLAYORDER=
